# xmcd CD database file
#
# Track frame offsets:
#	182
#	19535
#	36255
#	46342
#	59020
#	78200
#	92777
#	103807
#	115440
#	126960
#	144285
#	160052
#	172770
#	180367
#
# Disc length: 2597 seconds
#
# Revision: 0
# Processed by: cddbd v1.5.1PL0 Copyright (c) Steve Scherf et al.
# Submitted via: CDex 1.51
#
DISCID=af0a230e
DTITLE=Kapitan Kid - Songy
DYEAR=1992
DGENRE=Country
TTITLE0=Nezrale maliny
TTITLE1=Bagrak
TTITLE2=Trampska federalni 
TTITLE3=Forget Me Not
TTITLE4=Mramorovy ram
TTITLE5=Robinson
TTITLE6=Karavana
TTITLE7=Hraj, o, hraj
TTITLE8=Dopis na rozloucenou
TTITLE9=Pitaval
TTITLE10=Song prilezitostneho vraha
TTITLE11=Bourak znacky Dodge
TTITLE12=Muj dlouhy stin
TTITLE13=Andel smutku
EXTD=YEAR: 1992
EXTT0=
EXTT1=
EXTT2=
EXTT3=
EXTT4=
EXTT5=
EXTT6=
EXTT7=
EXTT8=
EXTT9=
EXTT10=
EXTT11=
EXTT12=
EXTT13=
PLAYORDER=
